#!OML:ASF H:\MichaelJackson\Top Level 1\Subject 1\Session 1\male.ASF
:FULLY-SPECIFIED
:DEGREES
507
root 4.95352 17.1533 -12.2402 6.79947 2.40357 4.27148
lowerback 1.54383 2.7636 -6.70603
upperback 6.35919 3.78957 0.703492
thorax 5.2921 1.53645 4.58385
lowerneck -12.0461 -4.71507 -0.654362
upperneck 44.041 -6.88548 -0.26155
head 18.7314 -2.78293 -1.24633
rclavicle 1.59028e-015 3.97569e-015
rhumerus -18.7737 39.6131 -88.6425
rradius 131.493
rwrist -22.7074
rhand -47.3952 -59.6155
rfingers 7.12502
rthumb -20.0871 -808.597
lclavicle 1.59028e-015 3.97569e-015
lhumerus -69.613 -9.25581 96.9563
lradius 61.0845
lwrist 15.7673
lhand -7.14653 8.8853
lfingers 7.12502
lthumb 18.7299 38.0036
rfemur -39.7677 -2.56367 17.7297
rtibia 62.8176
rfoot 7.13897 4.91577
rtoes 26.7482
lfemur -18.4031 1.98576 -25.5762
ltibia 41.9716
lfoot -9.41702 -18.0257
ltoes 34.8289
508
root 4.941 17.2389 -12.2212 7.01687 3.1938 3.47866
lowerback 1.56389 2.66975 -6.01204
upperback 6.43092 3.63411 1.15437
thorax 5.38128 1.47658 4.66773
lowerneck -12.0544 -4.84303 -0.722989
upperneck 43.7809 -7.05187 -0.241662
head 18.5742 -2.86064 -1.24643
rclavicle -5.92378e-014 9.54166e-015
rhumerus -18.8335 39.2299 -88.4394
rradius 131.606
rwrist -22.3036
rhand -47.4564 -59.3508
rfingers 7.12502
rthumb -20.146 -808.326
lclavicle -5.92378e-014 9.54166e-015
lhumerus -69.6004 -9.38197 97.3011
lradius 61.0916
lwrist 15.6411
lhand -5.82059 8.81108
lfingers 7.12502
lthumb 20.0048 37.8013
rfemur -38.8574 -2.67161 18.5031
rtibia 61.1471
rfoot 6.3847 5.49713
rtoes 25.3253
lfemur -20.3252 1.96844 -24.6934
ltibia 44.3791
lfoot -6.25503 -17.9418
ltoes 34.8722
509
root 4.92829 17.317 -12.2034 7.22976 4.06934 2.5951
lowerback 1.56099 2.59441 -5.17942
upperback 6.50977 3.50081 1.62231
thorax 5.49394 1.43399 4.69288
lowerneck -12.0585 -5.01731 -0.774071
upperneck 43.4728 -7.29277 -0.217442
head 18.3875 -2.96557 -1.25925
rclavicle -8.34896e-015 -1.82882e-014
rhumerus -18.8761 38.7451 -88.1757
rradius 131.77
rwrist -22.0611
rhand -47.505 -59.2405
rfingers 7.12502
rthumb -20.1927 -808.211
lclavicle -8.34896e-015 -1.82882e-014
lhumerus -69.5505 -9.63664 97.6334
lradius 61.0889
lwrist 15.4801
lhand -4.35531 8.68557
lfingers 7.12502
lthumb 21.4127 37.5223
rfemur -37.8747 -2.72075 19.34
rtibia 59.3707
rfoot 5.24053 6.2162
rtoes 23.3224
lfemur -22.5361 2.02747 -23.7514
ltibia 47.0866
lfoot -2.77451 -17.605
ltoes 35.3886
510
root 4.91562 17.3868 -12.1845 7.41447 4.9859 1.61891
lowerback 1.52412 2.54562 -4.21449
upperback 6.58924 3.39977 2.10308
thorax 5.62864 1.4142 4.65891
lowerneck -12.0476 -5.22785 -0.80212
upperneck 43.1376 -7.59081 -0.19814
head 18.1816 -3.09127 -1.28685
rclavicle -3.89618e-014 -7.95139e-016
rhumerus -18.8961 38.1875 -87.8462
rradius 131.975
rwrist -22.0053
rhand -47.5488 -59.2918
rfingers 7.12502
rthumb -20.2348 -808.258
lclavicle -3.89618e-014 -7.95139e-016
lhumerus -69.4971 -9.9827 97.9362
lradius 61.1078
lwrist 15.3198
lhand -2.77558 8.59077
lfingers 7.12502
lthumb 22.9293 37.2473
rfemur -36.801 -2.6848 20.2491
rtibia 57.4967
rfoot 3.77014 6.96229
rtoes 21.0679
lfemur -24.9276 2.16267 -22.7645
ltibia 49.9369
lfoot 0.718154 -16.9247
ltoes 36.2874
511
root 4.90302 17.4472 -12.1626 7.5512 5.88395 0.575471
lowerback 1.45145 2.52937 -3.15672
upperback 6.66265 3.33868 2.58296
thorax 5.7785 1.42017 4.57405
lowerneck -12.0011 -5.46245 -0.815507
upperneck 42.7909 -7.92677 -0.179579
head 17.9618 -3.2314 -1.32167
rclavicle 3.77691e-014 8.74653e-015
rhumerus -18.888 37.6051 -87.4651
rradius 132.186
rwrist -22.0813
rhand -47.5829 -59.4672
rfingers 7.12502
rthumb -20.2676 -808.43
lclavicle 3.77691e-014 8.74653e-015
lhumerus -69.4744 -10.3667 98.1883
lradius 61.1736
lwrist 15.1955
lhand -1.10955 8.64176
lfingers 7.12502
lthumb 24.5272 37.0909
rfemur -35.628 -2.54148 21.2102
rtibia 55.5436
rfoot 2.09023 7.6107
rtoes 18.9115
lfemur -27.372 2.37943 -21.7726
ltibia 52.7415
lfoot 3.91877 -15.8605
ltoes 37.6038
512
root 4.89001 17.4985 -12.136 7.62511 6.71342 -0.47447
lowerback 1.34338 2.541 -2.08352
upperback 6.72904 3.31251 3.03657
thorax 5.94195 1.44635 4.45582
lowerneck -11.912 -5.70205 -0.819331
upperneck 42.4584 -8.27407 -0.155493
head 17.7428 -3.37519 -1.35552
rclavicle 1.35174e-014 1.03368e-014
rhumerus -18.8426 37.0615 -87.065
rradius 132.36
rwrist -22.1787
rhand -47.6142 -59.7328
rfingers 7.12502
rthumb -20.2977 -808.692
lclavicle 1.35174e-014 1.03368e-014
lhumerus -69.5001 -10.7287 98.3649
lradius 61.3054
lwrist 15.1364
lhand 0.573772 8.89401
lfingers 7.12502
lthumb 26.1398 37.1146
rfemur -34.3404 -2.28516 22.1691
rtibia 53.5332
rfoot 0.354218 8.03082
rtoes 17.1634
lfemur -29.7249 2.66712 -20.8401
ltibia 55.3045
lfoot 6.43214 -14.4397
ltoes 38.9972
513
root 4.87635 17.5415 -12.1032 7.63581 7.42924 -1.44447
lowerback 1.20582 2.57088 -1.097
upperback 6.78535 3.31109 3.43384
thorax 6.11062 1.48329 4.33007
lowerneck -11.7796 -5.92185 -0.813249
upperneck 42.1705 -8.59375 -0.133364
head 17.5412 -3.50732 -1.38589
rclavicle -2.18663e-014 -3.57812e-014
rhumerus -18.7565 36.6158 -86.689
rradius 132.452
rwrist -22.1743
rhand -47.6305 -60.0326
rfingers 7.12502
rthumb -20.3134 -808.99
lclavicle -2.18663e-014 -3.57812e-014
lhumerus -69.5857 -11.0076 98.4449
lradius 61.5002
lwrist 15.1505
lhand 2.22557 9.24893
lfingers 7.12502
lthumb 27.7203 37.2256
rfemur -32.9324 -1.92972 23.0442
rtibia 51.4935
rfoot -1.28348 8.13953
rtoes 15.9986
lfemur -31.8527 3.00523 -20.049
ltibia 57.4462
lfoot 8.05364 -12.7467
ltoes 40.2045
514
root 4.86145 17.5769 -12.0634 7.58703 8.00704 -2.25672
lowerback 1.05709 2.60298 -0.289174
upperback 6.83082 3.31662 3.75097
thorax 6.27086 1.51777 4.22199
lowerneck -11.604 -6.10338 -0.811257
upperneck 41.948 -8.85812 -0.107181
head 17.3694 -3.61733 -1.40368
rclavicle 3.61788e-014 -2.78299e-014
rhumerus -18.6158 36.2986 -86.374
rradius 132.433
rwrist -22.0645
rhand -47.6255 -60.2962
rfingers 7.12502
rthumb -20.3085 -809.254
lclavicle 3.61788e-014 -2.78299e-014
lhumerus -69.7171 -11.155 98.4155
lradius 61.7259
lwrist 15.2522
lhand 3.75371 9.74131
lfingers 7.12502
lthumb 29.1805 37.4739
rfemur -31.4003 -1.49372 23.766
rtibia 49.4551
rfoot -2.70093 7.88161
rtoes 15.3337
lfemur -33.6491 3.36022 -19.4595
ltibia 59.027
lfoot 8.75842 -10.9067
ltoes 41.328
515
root 4.845 17.6056 -12.0162 7.48824 8.45381 -2.84565
lowerback 0.908488 2.61998 0.265592
upperback 6.86647 3.31015 3.9748
thorax 6.414 1.53624 4.15758
lowerneck -11.4067 -6.2321 -0.81236
upperneck 41.817 -9.04174 -0.0922186
head 17.2454 -3.69528 -1.41372
rclavicle -3.26007e-014 1.19271e-014
rhumerus -18.4264 36.1359 -86.1521
rradius 132.297
rwrist -21.8463
rhand -47.5987 -60.4865
rfingers 7.12502
rthumb -20.2828 -809.447
lclavicle -3.26007e-014 1.19271e-014
lhumerus -69.8892 -11.1453 98.2828
lradius 61.9488
lwrist 15.4381
lhand 5.04673 10.3574
lfingers 7.12502
lthumb 30.4145 37.8688
rfemur -29.747 -1.01195 24.2763
rtibia 47.4481
rfoot -3.767 7.26437
rtoes 15.1468
lfemur -35.0469 3.67206 -19.107
ltibia 59.9594
lfoot 8.64432 -9.05645
ltoes 42.1749
516
root 4.82746 17.6275 -11.962 7.35775 8.77573 -3.18527
lowerback 0.763721 2.61333 0.541507
upperback 6.8905 3.28304 4.10586
thorax 6.53375 1.53247 4.15031
lowerneck -11.2016 -6.30351 -0.825224
upperneck 41.786 -9.13292 -0.0976217
head 17.1758 -3.73804 -1.41785
rclavicle -5.32743e-014 -2.38542e-015
rhumerus -18.2002 36.1262 -86.037
rradius 132.067
rwrist -21.5911
rhand -47.5627 -60.6218
rfingers 7.12502
rthumb -20.2481 -809.586
lclavicle -5.32743e-014 -2.38542e-015
lhumerus -70.075 -10.9761 98.0678
lradius 62.1121
lwrist 15.699
lhand 6.00572 10.9324
lfingers 7.12502
lthumb 31.3288 38.2707
rfemur -28.0028 -0.513992 24.5553
rtibia 45.5018
rfoot -4.41007 6.35739
rtoes 15.1649
lfemur -36.0353 3.90103 -18.991
ltibia 60.222
lfoot 7.97015 -7.35316
ltoes 42.7252
517
root 4.80958 17.6421 -11.9017 7.20709 9.01167 -3.30284
lowerback 0.624471 2.5776 0.572462
upperback 6.89939 3.22802 4.16347
thorax 6.62613 1.50376 4.20033
lowerneck -11.0075 -6.32471 -0.85313
upperneck 41.8542 -9.13771 -0.134071
head 17.1639 -3.74924 -1.42242
rclavicle 1.39149e-014 2.62396e-014
rhumerus -17.9535 36.2514 -86.0186
rradius 131.782
rwrist -21.3507
rhand -47.5106 -60.7101
rfingers 7.12502
rthumb -20.1981 -809.68
lclavicle 1.39149e-014 2.62396e-014
lhumerus -70.2546 -10.6669 97.797
lradius 62.1768
lwrist 15.9932
lhand 6.6279 11.4655
lfingers 7.12502
lthumb 31.9214 38.6872
rfemur -26.2022 -0.0475736 24.6373
rtibia 43.6401
rfoot -4.75684 5.26156
rtoes 14.6213
lfemur -36.6475 3.99588 -19.0543
ltibia 59.8571
lfoot 7.04948 -5.93911
ltoes 42.9523
518
root 4.79259 17.6476 -11.8366 7.04567 9.20451 -3.26159
lowerback 0.48588 2.51204 0.441284
upperback 6.89044 3.14133 4.17211
thorax 6.69492 1.45196 4.28682
lowerneck -10.8374 -6.30841 -0.900521
upperneck 41.9998 -9.0734 -0.200595
head 17.2009 -3.73678 -1.42928
rclavicle 5.56597e-015 -2.54444e-014
rhumerus -17.7048 36.4746 -86.077
rradius 131.495
rwrist -21.2277
rhand -47.4681 -60.7551
rfingers 7.12502
rthumb -20.1572 -809.729
lclavicle 5.56597e-015 -2.54444e-014
lhumerus -70.4126 -10.2535 97.4949
lradius 62.1186
lwrist 16.2852
lhand 6.92173 11.8486
lfingers 7.12502
lthumb 32.2012 39.014
rfemur -24.3801 0.326495 24.5917
rtibia 41.8791
rfoot -4.99319 4.1205
rtoes 13.5892
lfemur -36.9571 3.91972 -19.2122
ltibia 58.9665
lfoot 6.28191 -4.94
ltoes 42.9172
519
root 4.778 17.6416 -11.7686 6.88431 9.383 -3.16184
lowerback 0.333989 2.43187 0.27062
upperback 6.85846 3.03797 4.16348
thorax 6.74716 1.39044 4.37575
lowerneck -10.6972 -6.2775 -0.965104
upperneck 42.1952 -8.9752 -0.292637
head 17.2734 -3.71459 -1.44223
rclavicle 1.43125e-014 3.26007e-014
rhumerus -17.4794 36.7412 -86.1771
rradius 131.257
rwrist -21.2432
rhand -47.4336 -60.7611
rfingers 7.12502
rthumb -20.1241 -809.739
lclavicle 1.43125e-014 3.26007e-014
lhumerus -70.5412 -9.79185 97.1927
lradius 61.9236
lwrist 16.5535
lhand 6.91473 12.0382
lfingers 7.12502
lthumb 32.1945 39.205
rfemur -22.5905 0.549154 24.5217
rtibia 40.2265
rfoot -5.28279 3.0448
rtoes 12.02
lfemur -37.071 3.66829 -19.3571
ltibia 57.7048
lfoot 5.87548 -4.38214
ltoes 42.5308
520
root 4.76665 17.6233 -11.6993 6.72817 9.57665 -3.0977
lowerback 0.15398 2.35015 0.171731
upperback 6.8001 2.92989 4.16356
thorax 6.79149 1.33069 4.43332
lowerneck -10.5922 -6.24963 -1.0318
upperneck 42.4125 -8.87368 -0.406391
head 17.3666 -3.69293 -1.46668
rclavicle 3.97569e-015 2.14687e-014
rhumerus -17.2994 37.0057 -86.2912
rradius 131.109
rwrist -21.3875
rhand -47.4168 -60.7525
rfingers 7.12502
rthumb -20.108 -809.732
lclavicle 3.97569e-015 2.14687e-014
lhumerus -70.6366 -9.32991 96.903
lradius 61.6084
lwrist 16.7513
lhand 6.69331 12.0449
lfingers 7.12502
lthumb 31.9837 39.2541
rfemur -20.8837 0.562614 24.5199
rtibia 38.6851
rfoot -5.76886 2.16237
rtoes 10.1867
lfemur -37.0884 3.24692 -19.3902
ltibia 56.2711
lfoot 5.9145 -4.23392
ltoes 41.8544
521
root 4.759 17.5918 -11.6301 6.58096 9.79295 -3.14454
lowerback -0.0621475 2.28356 0.233775
upperback 6.71287 2.83454 4.18935
thorax 6.83167 1.28604 4.4285
lowerneck -10.503 -6.24246 -1.09873
upperneck 42.6077 -8.80206 -0.520818
head 17.4521 -3.68384 -1.49671
rclavicle -1.59028e-015 3.57812e-014
rhumerus -17.1744 37.2326 -86.3933
rradius 131.066
rwrist -21.5983
rhand -47.413 -60.7222
rfingers 7.12502
rthumb -20.1043 -809.702
lclavicle -1.59028e-015 3.57812e-014
lhumerus -70.7016 -8.90535 96.6288
lradius 61.1931
lwrist 16.858
lhand 6.3543 11.9289
lfingers 7.12502
lthumb 31.6609 39.2022
rfemur -19.3032 0.334754 24.6528
rtibia 37.254
rfoot -6.57241 1.56809
rtoes 8.30404
lfemur -37.0991 2.7005 -19.2459
ltibia 54.8948
lfoot 6.33392 -4.36614
ltoes 41.468
